solid Mesh
  facet normal 0 0 -1
    outer loop
      vertex -0.219967 -6.52367 0
      vertex -2.21997 -6.52367 0
      vertex -0.219967 -4.52367 0
    endloop
  endfacet
  facet normal 0 0 -1
    outer loop
      vertex -2.21997 -6.52367 0
      vertex -2.21997 -4.52367 0
      vertex -0.219967 -4.52367 0
    endloop
  endfacet
  facet normal 0 0 1
    outer loop
      vertex -2.21997 -6.52367 2
      vertex -0.219967 -6.52367 2
      vertex -2.21997 -4.52367 2
    endloop
  endfacet
  facet normal 0 0 1
    outer loop
      vertex -0.219967 -6.52367 2
      vertex -0.219967 -4.52367 2
      vertex -2.21997 -4.52367 2
    endloop
  endfacet
  facet normal 1 0 0
    outer loop
      vertex -0.219967 -4.52367 2
      vertex -0.219967 -6.52367 2
      vertex -0.219967 -4.52367 0
    endloop
  endfacet
  facet normal 1 0 0
    outer loop
      vertex -0.219967 -6.52367 2
      vertex -0.219967 -6.52367 0
      vertex -0.219967 -4.52367 0
    endloop
  endfacet
  facet normal 0 -1 0
    outer loop
      vertex -0.219967 -6.52367 2
      vertex -2.21997 -6.52367 2
      vertex -0.219967 -6.52367 0
    endloop
  endfacet
  facet normal 0 -1 0
    outer loop
      vertex -2.21997 -6.52367 2
      vertex -2.21997 -6.52367 0
      vertex -0.219967 -6.52367 0
    endloop
  endfacet
  facet normal 0 1 0
    outer loop
      vertex -2.21997 -4.52367 2
      vertex -0.219967 -4.52367 2
      vertex -2.21997 -4.52367 0
    endloop
  endfacet
  facet normal 0 1 0
    outer loop
      vertex -0.219967 -4.52367 2
      vertex -0.219967 -4.52367 0
      vertex -2.21997 -4.52367 0
    endloop
  endfacet
  facet normal -1 0 0
    outer loop
      vertex -2.21997 -6.52367 2
      vertex -2.21997 -4.52367 2
      vertex -2.21997 -6.52367 0
    endloop
  endfacet
  facet normal -1 0 0
    outer loop
      vertex -2.21997 -4.52367 2
      vertex -2.21997 -4.52367 0
      vertex -2.21997 -6.52367 0
    endloop
  endfacet
endsolid Mesh
